<?xml version="1.0" standalone="no"?><!DOCTYPE svg PUBLIC "-//W3C//DTD SVG 1.1//EN" "http://www.w3.org/Graphics/SVG/1.1/DTD/svg11.dtd"><svg t="1497922243919" class="icon" style="" viewBox="0 0 1024 1024" version="1.1" xmlns="http://www.w3.org/2000/svg" p-id="942" xmlns:xlink="http://www.w3.org/1999/xlink" width="200" height="200"><defs><style type="text/css"></style></defs><path d="M934.791 772.542q32.987 34.151 48.351 62.587t-5.134 64.844q-4.551 6.845-12.525 16.493t-16.493 18.787-17.076 16.493-14.236 10.814q-28.435 17.076-67.138 9.102t-69.395-38.703l-268.515-268.515-145.635 145.635q-67.138 67.138-109.227 110.355-43.253 43.253-85.889 53.485t-75.658-19.333l-32.987-32.987q-6.845-6.845-7.973-9.102-12.525-15.947-14.782-32.441t2.839-32.441 15.364-30.73 22.755-27.307q10.23-9.102 36.409-34.151l61.458-63.715q37.537-36.409 83.631-81.92t96.156-95.573q-54.613-54.613-104.093-103.547t-88.765-87.6-64.298-63.133-30.73-30.146q-29.6-29.6-30.146-58.582t19.916-58.582q9.102-11.396 26.178-26.724t23.884-19.916q34.151-22.755 61.458-19.916t54.613 31.276l35.28 35.28q26.178 26.178 64.844 63.715t87.054 84.759 100.707 98.413q43.253-43.253 84.759-84.213t77.369-76.786 64.844-64.298 48.351-47.805q27.307-26.178 59.165-34.698t61.458 14.236q1.129 1.129 7.391 5.68t12.525 10.23 11.942 10.814 7.973 6.262q30.73 29.6 30.146 64.298t-30.146 64.298q-20.498 20.498-50.644 51.19t-67.138 67.138-77.951 77.369l-86.471 86.471q42.089 40.96 82.502 80.209t75.111 73.401 62.587 62.587 46.094 46.64z" fill="#000000" p-id="943"></path></svg>